<?xml version="1.0" standalone="no"?>
<!DOCTYPE svg PUBLIC "-//W3C//DTD SVG 20010904//EN"
 "http://www.w3.org/TR/2001/REC-SVG-20010904/DTD/svg10.dtd">
<svg version="1.0" xmlns="http://www.w3.org/2000/svg"
 width="880.000000pt" height="880.000000pt" viewBox="0 0 880.000000 880.000000"
 preserveAspectRatio="xMidYMid meet">
<metadata>
Created by potrace 1.14, written by Peter Selinger 2001-2017
</metadata>
<g transform="translate(0.000000,880.000000) scale(0.100000,-0.100000)"
fill="#000000" stroke="none">
<path d="M6795 6073 c-11 -3 -51 -14 -89 -25 -38 -11 -76 -21 -85 -24 -116
-28 -427 -112 -536 -144 -77 -23 -156 -44 -175 -47 -19 -3 -73 -18 -120 -35
-47 -16 -92 -32 -101 -35 -13 -4 -46 -65 -55 -103 0 -3 -4 -14 -9 -25 -18 -45
-187 -470 -240 -605 -31 -80 -60 -149 -65 -155 -4 -5 -19 -41 -33 -80 -14 -38
-47 -119 -72 -180 -26 -60 -65 -155 -87 -210 -107 -271 -152 -376 -163 -385
-16 -14 -24 -2 -60 85 -15 39 -34 86 -42 105 -24 56 -29 70 -68 170 -21 52
-43 109 -50 125 -8 17 -27 66 -45 110 -17 44 -47 117 -66 162 -19 45 -54 133
-78 195 -70 180 -173 429 -183 438 -9 9 -167 -25 -298 -65 -44 -13 -125 -36
-180 -50 -55 -15 -129 -35 -165 -45 -36 -11 -105 -29 -155 -41 -49 -12 -97
-25 -105 -29 -15 -8 -40 -67 -146 -340 -44 -114 -271 -660 -315 -759 -17 -39
-36 -68 -40 -65 -14 8 -50 83 -56 113 -2 14 -19 60 -38 101 -18 41 -63 152
-100 245 -36 94 -72 181 -79 195 -8 14 -19 43 -26 65 -7 22 -16 45 -20 50 -4
6 -13 28 -20 50 -7 22 -19 55 -28 73 -19 42 7 45 -312 -43 -113 -31 -212 -58
-220 -60 -82 -21 -177 -48 -278 -81 -142 -45 -137 -26 -60 -201 27 -62 60
-143 74 -180 13 -38 29 -77 34 -88 5 -11 37 -90 70 -175 34 -85 68 -168 75
-185 18 -40 125 -315 125 -320 0 -3 13 -34 30 -70 16 -35 35 -85 41 -110 6
-24 17 -50 25 -56 8 -6 14 -16 14 -21 0 -8 239 -598 245 -606 5 -6 933 0 1023
7 6 1 12 7 12 14 0 11 62 172 90 232 5 11 48 119 96 240 47 121 95 239 106
263 21 48 114 290 131 340 11 34 43 60 57 45 4 -4 29 -62 55 -128 26 -66 55
-138 65 -160 20 -45 18 -40 105 -255 93 -230 170 -417 200 -485 14 -33 32 -73
38 -88 l12 -28 509 3 508 3 85 215 c47 118 89 224 93 235 5 11 21 49 36 85 14
36 32 79 39 95 8 17 86 210 174 430 88 220 192 479 231 575 39 96 91 227 116
290 24 63 49 124 54 135 16 35 41 98 67 170 14 39 30 76 36 83 20 26 95 49
367 116 22 6 128 35 180 50 25 7 82 23 127 36 85 24 85 23 63 75 -21 48 -134
324 -147 360 -76 203 -153 388 -167 401 -6 6 -20 9 -31 7z"/>
</g>
</svg>
